name ./resultDataOpenSim/trcMotMarkerGrf/sub10/grf-03-03.mot
datacolumns 19
datarows 17
range 1.58400000 1.64800000
endheader

                time	     ground_force_vx	     ground_force_vy	     ground_force_vz	     ground_force_px	     ground_force_py	     ground_force_pz	   l_ground_force_vx	   l_ground_force_vy	   l_ground_force_vz	   l_ground_force_px	   l_ground_force_py	   l_ground_force_pz	     ground_torque_x	     ground_torque_y	     ground_torque_z	   l_ground_torque_x	   l_ground_torque_y	   l_ground_torque_z	
          1.58400000	         19.04536978	        378.86064693	        -32.87926389	          0.82851496	          0.00000000	          0.08887936	          0.00000000	          0.00000000	          0.00000000	          0.00000000	          0.00000000	          0.00000000	          0.00000000	          5.61666322	          0.00000000	          0.00000000	          0.00000000	          0.00000000	
          1.58800000	         19.90843385	        383.11120211	        -34.07652261	          0.82982952	          0.00000000	          0.08879105	          0.00000000	          0.00000000	          0.00000000	          0.00000000	          0.00000000	          0.00000000	          0.00000000	          5.75050026	          0.00000000	          0.00000000	          0.00000000	          0.00000000	
          1.59200000	         20.67627718	        387.99329309	        -34.85659916	          0.83124411	          0.00000000	          0.08867275	          0.00000000	          0.00000000	          0.00000000	          0.00000000	          0.00000000	          0.00000000	          0.00000000	          5.86252556	          0.00000000	          0.00000000	          0.00000000	          0.00000000	
          1.59600000	         21.54121106	        393.52224181	        -35.22293504	          0.83271310	          0.00000000	          0.08851475	          0.00000000	          0.00000000	          0.00000000	          0.00000000	          0.00000000	          0.00000000	          0.00000000	          5.94796320	          0.00000000	          0.00000000	          0.00000000	          0.00000000	
          1.60000000	         22.64535111	        399.73836607	        -35.25832169	          0.83420223	          0.00000000	          0.08831337	          0.00000000	          0.00000000	          0.00000000	          0.00000000	          0.00000000	          0.00000000	          0.00000000	          6.00965380	          0.00000000	          0.00000000	          0.00000000	          0.00000000	
          1.60400000	         24.04182752	        406.67198025	        -35.10967036	          0.83570146	          0.00000000	          0.08807072	          0.00000000	          0.00000000	          0.00000000	          0.00000000	          0.00000000	          0.00000000	          0.00000000	          6.05738318	          0.00000000	          0.00000000	          0.00000000	          0.00000000	
          1.60800000	         25.68065472	        414.30667613	        -34.96144787	          0.83722889	          0.00000000	          0.08779899	          0.00000000	          0.00000000	          0.00000000	          0.00000000	          0.00000000	          0.00000000	          0.00000000	          6.10527191	          0.00000000	          0.00000000	          0.00000000	          0.00000000	
          1.61200000	         27.42429615	        422.57503394	        -34.99899809	          0.83883168	          0.00000000	          0.08751261	          0.00000000	          0.00000000	          0.00000000	          0.00000000	          0.00000000	          0.00000000	          0.00000000	          6.16832440	          0.00000000	          0.00000000	          0.00000000	          0.00000000	
          1.61600000	         29.09084180	        431.38744447	        -35.36667221	          0.84053936	          0.00000000	          0.08723139	          0.00000000	          0.00000000	          0.00000000	          0.00000000	          0.00000000	          0.00000000	          0.00000000	          6.25917595	          0.00000000	          0.00000000	          0.00000000	          0.00000000	
          1.62000000	         30.50844111	        440.67461761	        -36.13212985	          0.84236221	          0.00000000	          0.08696611	          0.00000000	          0.00000000	          0.00000000	          0.00000000	          0.00000000	          0.00000000	          0.00000000	          6.38556271	          0.00000000	          0.00000000	          0.00000000	          0.00000000	
          1.62400000	         31.56006210	        450.41694092	        -37.26834954	          0.84430541	          0.00000000	          0.08671006	          0.00000000	          0.00000000	          0.00000000	          0.00000000	          0.00000000	          0.00000000	          0.00000000	          6.54863301	          0.00000000	          0.00000000	          0.00000000	          0.00000000	
          1.62800000	         32.21024375	        460.64280857	        -38.66053465	          0.84635959	          0.00000000	          0.08645521	          0.00000000	          0.00000000	          0.00000000	          0.00000000	          0.00000000	          0.00000000	          0.00000000	          6.74221022	          0.00000000	          0.00000000	          0.00000000	          0.00000000	
          1.63200000	         32.51429938	        471.40546714	        -40.13640315	          0.84851113	          0.00000000	          0.08619029	          0.00000000	          0.00000000	          0.00000000	          0.00000000	          0.00000000	          0.00000000	          0.00000000	          6.95330735	          0.00000000	          0.00000000	          0.00000000	          0.00000000	
          1.63600000	         32.60669736	        482.75735271	        -41.50854364	          0.85074440	          0.00000000	          0.08590352	          0.00000000	          0.00000000	          0.00000000	          0.00000000	          0.00000000	          0.00000000	          0.00000000	          7.16418177	          0.00000000	          0.00000000	          0.00000000	          0.00000000	
          1.64000000	         32.66530927	        494.72314110	        -42.61639113	          0.85303639	          0.00000000	          0.08558921	          0.00000000	          0.00000000	          0.00000000	          0.00000000	          0.00000000	          0.00000000	          0.00000000	          7.35580776	          0.00000000	          0.00000000	          0.00000000	          0.00000000	
          1.64400000	         32.86190642	        507.26850413	        -43.36129961	          0.85536416	          0.00000000	          0.08525162	          0.00000000	          0.00000000	          0.00000000	          0.00000000	          0.00000000	          0.00000000	          0.00000000	          7.51199691	          0.00000000	          0.00000000	          0.00000000	          0.00000000	
          1.64800000	         33.31853126	        520.28339979	        -43.72991087	          0.85770921	          0.00000000	          0.08490348	          0.00000000	          0.00000000	          0.00000000	          0.00000000	          0.00000000	          0.00000000	          0.00000000	          7.62292871	          0.00000000	          0.00000000	          0.00000000	          0.00000000	
